# Blender 4.2.3 LTS
# www.blender.org
mtllib cWall2.mtl
o Wall_01.001
v 7.276063 21.668926 0.113626
v 7.276063 21.668926 2.104238
v 7.276063 21.917751 0.113626
v 7.276063 21.917751 2.104238
v 12.681773 21.668926 0.113626
v 12.681773 21.668926 2.104238
v 12.681773 21.917751 0.113626
v 12.681773 21.917751 2.104238
v 12.681773 21.668926 1.357758
v 12.681773 21.917751 1.357758
v 7.276063 21.917751 1.357758
v 7.276063 21.668926 1.357758
v 7.814923 21.917751 0.113626
v 12.142913 21.917751 0.113626
v 12.142913 21.917751 2.104238
v 7.814923 21.917751 2.104238
v 12.142913 21.668926 0.113626
v 7.814923 21.668926 0.113626
v 7.814923 21.668926 2.104238
v 12.142913 21.668926 2.104238
v 7.814923 21.668926 1.357758
v 12.142913 21.668926 1.357758
v 12.142913 21.917751 1.357758
v 7.814923 21.917751 1.357758
v 7.276063 21.668926 1.772469
v 7.814923 21.668926 1.772469
v 7.276063 21.917751 1.772469
v 12.142913 21.917751 1.772469
v 12.681773 21.668926 1.772469
v 12.681773 21.917751 1.772469
v 12.142913 21.668926 1.772469
v 7.814923 21.917751 1.772469
v 7.276063 21.917751 0.354950
v 7.814923 21.917751 0.354950
v 12.681773 21.917751 0.354950
v 12.681773 21.668926 0.354950
v 7.276063 21.668926 0.354950
v 12.142913 21.668926 0.354950
v 7.814923 21.668926 0.354950
v 12.142913 21.917751 0.354950
vn -1.0000 -0.0000 -0.0000
vn -0.0000 -0.0000 1.0000
vn 1.0000 -0.0000 -0.0000
vn -0.0000 1.0000 -0.0000
vn -0.0000 -0.0000 -1.0000
vn -0.0000 -1.0000 -0.0000
vt 0.859855 0.896326
vt 0.858949 0.899947
vt 0.858949 0.896326
vt 0.860216 0.903568
vt 0.859855 0.907190
vt 0.859855 0.903568
vt 0.858949 0.907190
vt 0.858949 0.903568
vt 0.858044 0.899947
vt 0.857139 0.900308
vt 0.857139 0.899947
vt 0.672105 0.899877
vt 0.671744 0.903499
vt 0.671744 0.899877
vt 0.858949 0.907551
vt 0.863476 0.903568
vt 0.863115 0.907190
vt 0.863115 0.903568
vt 0.859855 0.903207
vt 0.858949 0.903207
vt 0.859855 0.910450
vt 0.858949 0.910811
vt 0.858949 0.910450
vt 0.675366 0.899877
vt 0.675005 0.903499
vt 0.675005 0.899877
vt 0.675366 0.906759
vt 0.676271 0.903860
vt 0.676271 0.906759
vt 0.675366 0.899516
vt 0.676271 0.896617
vt 0.676271 0.899516
vt 0.859855 0.899947
vt 0.858949 0.900308
vt 0.858044 0.903207
vt 0.858044 0.907551
vt 0.858044 0.900308
vt 0.858044 0.910450
vt 0.857139 0.910811
vt 0.857139 0.910450
vt 0.857139 0.903568
vt 0.857139 0.903207
vt 0.858044 0.907190
vt 0.857139 0.907551
vt 0.857139 0.907190
vt 0.858044 0.903568
vt 0.858044 0.896326
vt 0.857139 0.896326
vt 0.859855 0.907551
vt 0.859855 0.900308
vt 0.858044 0.910811
vt 0.676271 0.892634
vt 0.675366 0.896256
vt 0.675366 0.892634
vt 0.676271 0.899877
vt 0.675366 0.903499
vt 0.676271 0.903499
vt 0.675366 0.903860
vt 0.675366 0.907120
vt 0.676271 0.896256
vt 0.675366 0.896617
vt 0.860216 0.907190
vt 0.672105 0.903499
vt 0.863476 0.907190
vt 0.859855 0.910811
vt 0.676271 0.907120
s 1
usemtl FPSLite_01.012
f 2/1/1 27/2/1 25/3/1
f 15/4/2 6/5/2 8/6/2
f 8/6/3 29/7/3 30/8/3
f 11/9/4 34/10/4 33/11/4
f 13/12/5 1/13/5 3/14/5
f 6/5/6 31/15/6 29/7/6
f 4/16/2 19/17/2 16/18/2
f 15/19/4 30/8/4 28/20/4
f 19/21/6 25/22/6 26/23/6
f 7/24/5 17/25/5 14/26/5
f 19/17/2 15/4/2 16/18/2
f 17/25/5 13/12/5 14/26/5
f 18/27/6 38/28/6 39/29/6
f 14/30/4 34/31/4 40/32/4
f 4/33/4 32/34/4 27/2/4
f 23/35/1 31/15/1 28/20/1
f 22/36/2 24/37/2 21/38/2
f 21/38/6 37/39/6 39/40/6
f 23/35/4 35/41/4 40/42/4
f 9/43/6 38/44/6 36/45/6
f 10/46/3 36/45/3 35/41/3
f 12/47/1 33/11/1 37/48/1
f 26/23/6 20/49/6 19/21/6
f 28/20/4 16/50/4 15/19/4
f 27/2/4 24/37/4 11/9/4
f 26/23/6 12/51/6 21/38/6
f 28/20/4 10/46/4 23/35/4
f 29/7/6 22/36/6 9/43/6
f 30/8/3 9/43/3 10/46/3
f 25/3/1 11/9/1 12/47/1
f 32/34/5 31/15/5 26/23/5
f 21/38/3 32/34/3 26/23/3
f 37/52/1 3/53/1 1/54/1
f 35/55/3 5/56/3 7/24/3
f 36/57/6 17/58/6 5/56/6
f 40/32/4 7/24/4 14/30/4
f 39/29/6 1/59/6 18/27/6
f 40/42/4 24/37/4 23/35/4
f 39/40/6 22/36/6 21/38/6
f 33/60/4 13/61/4 3/53/4
f 2/1/1 4/33/1 27/2/1
f 15/4/2 20/62/2 6/5/2
f 8/6/3 6/5/3 29/7/3
f 11/9/4 24/37/4 34/10/4
f 13/12/5 18/63/5 1/13/5
f 6/5/6 20/49/6 31/15/6
f 4/16/2 2/64/2 19/17/2
f 15/19/4 8/6/4 30/8/4
f 19/21/6 2/65/6 25/22/6
f 7/24/5 5/56/5 17/25/5
f 19/17/2 20/62/2 15/4/2
f 17/25/5 18/63/5 13/12/5
f 18/27/6 17/58/6 38/28/6
f 14/30/4 13/61/4 34/31/4
f 4/33/4 16/50/4 32/34/4
f 23/35/1 22/36/1 31/15/1
f 22/36/2 23/35/2 24/37/2
f 21/38/6 12/51/6 37/39/6
f 23/35/4 10/46/4 35/41/4
f 9/43/6 22/36/6 38/44/6
f 10/46/3 9/43/3 36/45/3
f 12/47/1 11/9/1 33/11/1
f 26/23/6 31/15/6 20/49/6
f 28/20/4 32/34/4 16/50/4
f 27/2/4 32/34/4 24/37/4
f 26/23/6 25/22/6 12/51/6
f 28/20/4 30/8/4 10/46/4
f 29/7/6 31/15/6 22/36/6
f 30/8/3 29/7/3 9/43/3
f 25/3/1 27/2/1 11/9/1
f 32/34/5 28/20/5 31/15/5
f 21/38/3 24/37/3 32/34/3
f 37/52/1 33/60/1 3/53/1
f 35/55/3 36/57/3 5/56/3
f 36/57/6 38/28/6 17/58/6
f 40/32/4 35/55/4 7/24/4
f 39/29/6 37/66/6 1/59/6
f 40/42/4 34/10/4 24/37/4
f 39/40/6 38/44/6 22/36/6
f 33/60/4 34/31/4 13/61/4
