# Blender 4.2.3 LTS
# www.blender.org
mtllib mainWallR.mtl
o Wall_03
v 19.837626 -0.120959 0.119374
v 19.837624 -0.121837 3.639909
v 19.537624 -0.121837 0.119374
v 19.537624 -0.121837 3.639909
v 19.837624 26.135181 0.119374
v 19.837624 26.135181 3.639909
v 19.537622 26.135181 0.119374
v 19.537622 26.135181 3.639909
v 19.837624 -0.120959 0.471427
v 19.537624 -0.120959 0.471427
v 19.537622 26.135181 0.471427
v 19.837624 26.135181 0.471427
v 19.505541 -0.120959 0.471427
v 19.505541 -0.121837 0.119374
v 19.505539 26.135181 0.119374
v 19.505539 26.135181 0.471427
v 19.869707 26.135181 0.471427
v 19.869707 26.135181 0.119374
v 19.869709 -0.120959 0.119374
v 19.869709 -0.120959 0.471427
vn -0.0000 -1.0000 -0.0003
vn 0.0003 -1.0000 0.0010
vn -0.0000 -1.0000 -0.0001
vn -1.0000 -0.0000 -0.0000
vn -0.0000 1.0000 -0.0000
vn 1.0000 -0.0000 -0.0000
vn -0.0000 -0.0000 -1.0000
vn -0.0000 -0.0000 1.0000
vn 0.0010 -1.0000 0.0008
vn 0.0015 -1.0000 0.0025
vn -0.0000 -1.0000 0.0025
vn -0.0000 -1.0000 -0.0000
vt 0.846644 0.896626
vt 0.843750 0.902414
vt 0.843750 0.896626
vt 0.846644 0.908203
vt 0.843750 0.908203
vt 0.843750 0.913992
vt 0.846644 0.913992
vt 0.843750 0.919780
vt 0.413121 0.964844
vt 0.407333 0.970632
vt 0.407333 0.964844
vt 0.852433 0.913992
vt 0.416016 0.964844
vt 0.413121 0.970632
vt 0.413121 0.953266
vt 0.416016 0.959055
vt 0.413121 0.959055
vt 0.416016 0.970632
vt 0.413121 0.976421
vt 0.416016 0.976421
vt 0.416016 0.953266
vt 0.846644 0.902414
vt 0.846644 0.919780
vt 0.852433 0.908203
s 1
usemtl FPSLite_01.007
f 2/1/1 10/2/2 9/3/3
f 10/2/4 8/4/4 11/5/4
f 8/4/5 12/6/5 11/5/5
f 6/7/6 9/8/6 12/6/6
f 7/9/7 1/10/7 3/11/7
f 8/4/8 2/12/8 6/7/8
f 3/11/7 15/9/7 7/9/7
f 11/13/5 5/14/5 7/9/5
f 7/9/5 16/13/5 11/13/5
f 1/15/9 10/16/2 3/17/10
f 17/18/6 19/19/6 18/14/6
f 13/16/4 15/9/4 14/17/4
f 12/18/5 18/14/5 5/14/5
f 11/13/8 13/16/8 10/16/8
f 9/20/8 17/18/8 12/18/8
f 10/16/2 14/17/11 3/17/10
f 1/15/9 20/21/12 9/21/3
f 5/14/7 19/10/7 1/10/7
f 2/1/1 4/22/1 10/2/2
f 10/2/4 4/22/4 8/4/4
f 8/4/5 6/7/5 12/6/5
f 6/7/6 2/23/6 9/8/6
f 7/9/7 5/14/7 1/10/7
f 8/4/8 4/24/8 2/12/8
f 3/11/7 14/11/7 15/9/7
f 11/13/5 12/18/5 5/14/5
f 7/9/5 15/9/5 16/13/5
f 1/15/9 9/21/3 10/16/2
f 17/18/6 20/20/6 19/19/6
f 13/16/4 16/13/4 15/9/4
f 12/18/5 17/18/5 18/14/5
f 11/13/8 16/13/8 13/16/8
f 9/20/8 20/20/8 17/18/8
f 10/16/2 13/16/11 14/17/11
f 1/15/9 19/15/12 20/21/12
f 5/14/7 18/14/7 19/10/7
