# Blender 4.2.3 LTS
# www.blender.org
mtllib woods1.mtl
o WoodPlank_02
v 14.197938 15.593011 2.845017
v 14.613005 15.618052 2.845017
v 14.613005 15.618052 2.751093
v 14.209057 10.689362 2.845017
v 14.209057 10.689362 2.751093
v 14.613005 10.714402 2.845017
v 14.613005 10.714402 2.751093
v 14.198113 13.999694 2.751093
v 14.243805 15.595778 2.751093
v 14.197938 15.593011 2.796989
vn -0.0000 -0.0000 -1.0000
vn 1.0000 -0.0000 -0.0000
vn 0.0619 -0.9981 -0.0000
vn -0.0602 0.9982 -0.0000
vn -0.0000 -0.0000 1.0000
vn -0.7078 0.0203 -0.7061
vn -1.0000 -0.0023 0.0011
vn -1.0000 -0.0023 0.0022
vn -1.0000 -0.0023 -0.0000
vn -0.9939 -0.0033 0.1103
vt 0.479798 0.903051
vt 0.479717 0.908185
vt 0.474664 0.908185
vt 0.474664 0.897917
vt 0.469529 0.903051
vt 0.469529 0.897917
vt 0.474664 0.903051
vt 0.469529 0.908185
vt 0.472155 0.892783
vt 0.464395 0.908185
vt 0.464395 0.903051
vt 0.474664 0.913238
vt 0.479798 0.907618
vt 0.472155 0.913319
vt 0.469529 0.913319
vt 0.469529 0.892783
vt 0.474664 0.893350
s 1
usemtl FPSLite_01.010
f 3/1/1 5/3/1 8/2/1
f 3/4/2 2/6/2 6/5/2
f 7/7/3 6/5/3 4/8/3
f 10/9/4 2/6/4 3/4/4
f 6/5/5 2/11/5 1/10/5
f 8/12/6 10/9/6 9/13/6
f 5/3/7 1/15/9 10/14/8
f 5/3/1 3/1/1 7/7/1
f 3/1/1 8/2/1 9/13/1
f 3/4/2 6/5/2 7/7/2
f 7/7/3 4/8/3 5/3/3
f 2/6/4 10/9/4 1/16/4
f 10/9/4 3/4/4 9/17/4
f 6/5/5 1/10/5 4/8/5
f 1/15/9 5/3/7 4/8/9
f 5/3/7 10/14/8 8/12/10
o WoodPlank_02.001
v 15.000870 15.593011 2.845017
v 15.415936 15.618052 2.845017
v 15.415936 15.618052 2.751093
v 15.011989 10.689362 2.845017
v 15.011989 10.689362 2.751093
v 15.415936 10.714402 2.845017
v 15.415936 10.714402 2.751093
v 15.001045 13.999694 2.751093
v 15.046737 15.595778 2.751093
v 15.000870 15.593011 2.796989
vn -0.0000 -0.0000 -1.0000
vn 1.0000 -0.0000 -0.0000
vn 0.0619 -0.9981 -0.0000
vn -0.0602 0.9982 -0.0000
vn -0.0000 -0.0000 1.0000
vn -0.7078 0.0203 -0.7061
vn -1.0000 -0.0023 0.0011
vn -1.0000 -0.0023 0.0022
vn -1.0000 -0.0023 -0.0000
vn -0.9939 -0.0033 0.1103
vt 0.479798 0.903051
vt 0.479717 0.908185
vt 0.474664 0.908185
vt 0.474664 0.897917
vt 0.469529 0.903051
vt 0.469529 0.897917
vt 0.474664 0.903051
vt 0.469529 0.908185
vt 0.472155 0.892783
vt 0.464395 0.908185
vt 0.464395 0.903051
vt 0.474664 0.913238
vt 0.479798 0.907618
vt 0.472155 0.913319
vt 0.469529 0.913319
vt 0.469529 0.892783
vt 0.474664 0.893350
s 1
usemtl FPSLite_01.016
f 13/18/11 15/20/11 18/19/11
f 13/21/12 12/23/12 16/22/12
f 17/24/13 16/22/13 14/25/13
f 20/26/14 12/23/14 13/21/14
f 16/22/15 12/28/15 11/27/15
f 18/29/16 20/26/16 19/30/16
f 15/20/17 11/32/19 20/31/18
f 15/20/11 13/18/11 17/24/11
f 13/18/11 18/19/11 19/30/11
f 13/21/12 16/22/12 17/24/12
f 17/24/13 14/25/13 15/20/13
f 12/23/14 20/26/14 11/33/14
f 20/26/14 13/21/14 19/34/14
f 16/22/15 11/27/15 14/25/15
f 11/32/19 15/20/17 14/25/19
f 15/20/17 20/31/18 18/29/20
